<svg xmlns="http://www.w3.org/2000/svg" xmlns:xlink="http://www.w3.org/1999/xlink" width="979.27271" height="975.61267" viewBox="-2100 -1470 5712.4241 5691.0739"><defs><path id="i" fill-rule="evenodd" d="m -31.5,0 h 33 a 30,30 0 0 0 30,-30 v -10 a 30,30 0 0 0 -30,-30 h -33 z m 13,-13 h 19 a 19,19 0 0 0 19,-19 v -6 a 19,19 0 0 0 -19,-19 h -19 z"/><path id="j" d="M 0,0 H 63 V -13 H 12 V -31 H 52 V -43 H 12 V -57 H 60 V -70 H 0 Z" transform="translate(-31.5)"/><path id="l" d="m -26.25,0 h 52.5 v -12 h -40.5 v -16 h 33 v -12 h -33 V -51 H 25 v -12 h -51.25 z"/><path id="k" d="m -31.5,0 h 12 v -48 l 14,48 h 11 l 14,-48 V 0 h 12 V -70 H 14 L 0,-22 -14,-70 h -17.5 z"/><path id="b" fill-rule="evenodd" d="M 0,0 A 31.5,35 0 0 0 0,-70 31.5,35 0 0 0 0,0 m 0,-13 a 18.5,22 0 0 0 0,-44 18.5,22 0 0 0 0,44"/><path id="c" fill-rule="evenodd" d="m -31.5,0 h 13 v -26 h 28 a 22,22 0 0 0 0,-44 h -40 z m 13,-39 h 27 a 9,9 0 0 0 0,-18 h -27 z"/><path id="n" d="m -15.75,-22 c 0,7 6.75,10.5 16.75,10.5 10,0 14.74,-3.25 14.75,-7.75 C 15.75,-33.5 -31,-24.5 -30.75,-49.5 -30.5,-71 -6,-70 3,-70 c 9,0 26,4 25.75,21.25 H 13.5 c 0,-7.5 -7,-10.25 -15,-10.25 -7.75,0 -13.25,1.25 -13.25,8.5 -0.25,11.75 46.25,4 46.25,28.75 C 31.5,-3.5 13.5,0 0,0 -11.5,0 -31.55,-4.5 -31.5,-22 Z"/><use xlink:href="#f" id="o" transform="scale(31.5)"/><use xlink:href="#f" id="p" transform="scale(26.25)"/><use xlink:href="#f" id="r" transform="scale(21)"/><use xlink:href="#f" id="q" transform="scale(15)"/><use xlink:href="#f" id="s" transform="scale(10.5)"/><g id="m"><clipPath id="a"><path d="m -31.5,0 v -70 h 63 V 0 Z M 0,-47 v 12 h 31.5 v -12 z"/></clipPath><use xlink:href="#b" clip-path="url(#a)"/><path d="m 5,-35 h 26.5 v 10 H 5 Z"/><path d="m 21.5,-35 h 10 V 0 h -10 z"/></g><g id="h"><use xlink:href="#c"/><path d="m 28,0 c 0,-10 0,-32 -15,-32 H -6 c 22,0 22,22 22,32"/></g><g id="f" fill="#fff"><g id="e"><path id="d" d="M 0,-1 V 0 H 0.5" transform="rotate(18,0,-1)"/><use xlink:href="#d" transform="scale(-1,1)"/></g><use xlink:href="#e" transform="rotate(72)"/><use xlink:href="#e" transform="rotate(-72)"/><use xlink:href="#e" transform="rotate(144)"/><use xlink:href="#e" transform="rotate(-144)"/></g></defs><clipPath id="g"><circle r="735"/></clipPath><path fill="#009440" d="m -210.99202,-1470 c -12.1539,4.0512 -16.2039,20.2551 -28.3578,28.3577 -8.1025,4.0512 -16.2106,4.0512 -24.3131,0 -12.1539,-4.0513 -20.2504,-28.3482 -24.3018,-20.2457 -8.1025,12.1539 12.1452,24.3043 12.1452,36.4583 4.0514,12.1539 4.058,24.3111 -4.0446,32.4137 -12.1539,16.2052 -28.3584,28.3558 -48.6149,36.4584 -20.2564,12.1539 -48.6157,12.1478 -68.8721,24.3017 -12.154,8.1026 -12.1592,28.3672 -24.3131,36.4697 -16.2051,8.1026 -40.5101,8.0939 -56.7155,12.1452 -24.3076,4.0513 -44.5596,-8.1026 -64.8161,0 -20.2565,8.1026 -36.4724,20.2646 -48.6263,36.4698 -4.0511,12.1538 8.1074,24.3044 4.056,36.4583 -4.0514,8.1026 -16.206,4.0513 -20.2572,0 -12.1539,-8.1026 -16.204,-28.3624 -28.3577,-32.4137 -12.1539,-8.1026 -28.3604,0.01 -40.5143,-4.0446 -24.3076,-4.0513 -48.6156,-12.1593 -68.8721,-24.3132 -16.2054,-8.1026 -20.2578,-40.5143 -40.5143,-40.5143 -20.2564,0 -40.5055,24.3138 -52.6595,44.5703 -8.1025,12.1539 -4.0534,36.4563 8.1006,44.5589 16.2049,12.1539 44.5664,-8.1046 60.7714,8.1006 12.1539,8.1026 8.0957,28.3651 4.0446,44.5703 -4.0514,12.1539 -12.1545,20.2599 -20.2571,32.4138 -4.0514,12.1538 -12.1452,24.3091 -12.1452,40.5143 0,20.2565 4.0495,36.459 8.1006,56.7155 4.0514,12.1539 8.0984,20.2551 16.2011,28.3577 4.0511,8.1026 16.2106,8.1006 24.3132,8.1006 8.1028,4.0513 20.2485,16.2079 32.4023,12.1566 8.1025,0 16.2107,-16.2126 24.3132,-16.2126 16.2051,4.0513 36.4554,24.3112 24.3018,32.4137 -20.2565,20.2565 -56.7162,7e-4 -76.9727,20.2572 -28.359,20.2565 -20.2559,72.9288 -48.6149,93.1852 -12.1539,12.1539 -12.1524,-32.4137 -28.3578,-32.4137 -16.205,0 -20.2598,28.3604 -32.4137,40.5143 -28.359,24.3078 -56.7209,40.515 -81.0286,60.7715 -12.154,12.1539 -16.197,44.5656 -32.4024,40.5143 -20.2565,0 -8.1078,-36.4724 -24.3131,-48.6263 -12.15358,-8.1026 -28.36048,-12.1539 -40.51438,0 -12.154,12.1539 -6e-4,52.6709 -20.2571,52.6709 -28.359,4.0513 -44.5645,-28.3537 -68.8721,-44.5589 -20.2565,-12.1539 -44.5616,-20.2578 -56.7155,-40.5143 -8.1025,-8.1026 4.0514,-24.3159 0,-36.4697 -16.2051,-32.4104 -28.3611,-76.964 -60.7715,-89.1179 -24.3078,-8.1026 -28.3517,48.6082 -52.6595,52.6595 -16.2054,4.0513 -20.2643,-28.3557 -36.4697,-36.4583 -12.1539,-4.0513 -28.351,-4.0533 -32.4023,8.1006 -4.0511,12.1539 28.3505,36.463 12.1451,40.5143 -52.6668,20.2565 -109.3836,8.1006 -166.1019,8.1006 -20.2564,0 -52.6575,-16.2005 -60.76,4.056 -12.1539,32.4103 -4.0602,72.9247 12.1451,109.3864 4.0511,12.1539 28.3604,0 40.5144,0 12.1538,-4.0513 24.3111,-12.1586 32.4137,-4.056 12.1539,8.1026 8.1006,28.3604 8.1006,40.5143 -4.0514,12.1539 -12.1478,28.3577 -24.3018,28.3577 -12.1539,0 -20.2647,-28.3577 -36.4697,-28.3577 -20.2565,4.0513 -48.613,16.2019 -56.7155,36.4583 -12.154,32.4104 -4.0512,68.8755 0,101.2858 4.0514,12.154 12.1593,20.2599 24.3132,32.4138 8.1025,4.0513 24.3065,4.0473 28.3577,16.2011 12.1539,12.1539 8.0984,28.3538 16.2012,44.559 4.0511,12.1539 16.2011,20.2598 16.2011,32.4137 0,20.2565 -12.1451,36.459 -12.1451,56.7155 0,16.2052 8.0957,36.4657 4.0446,52.6709 -12.154,89.1285 -28.3583,182.30389 -48.615,271.43229 -8.1025,36.46166 -8.1061,81.03402 -32.4137,105.3418 -12.1539,12.15388 -32.4095,-32.40905 -48.6149,-28.35775 -24.3078,4.05129 -32.4079,36.45163 -56.7155,40.50293 -12.1539,4.05129 -24.3044,-20.25247 -36.4583,-16.20117 -12.154,0 -16.2039,16.20586 -28.3578,20.25716 -12.154,8.10259 -28.3606,-4.0513 -40.5143,0 -24.3079,12.15389 -40.515,32.40972 -60.7715,48.61491 -20.2565,16.20518 -44.5661,24.31383 -60.7715,44.57031 -20.2563,20.25648 -32.4118,48.60889 -40.5143,72.91667 -8.1026,20.25648 -12.1498,40.515 -16.2012,60.77148 0,16.20518 4.0514,32.40972 0,48.61491 -4.0511,20.25648 -4.0517,44.5663 -20.2571,60.77148 -8.1025,16.20519 -36.4564,8.09658 -44.5589,24.30176 -12.154,20.25648 -8.112,44.57109 -8.112,64.82747 0,12.15399 8.1029,28.35565 0,36.45834 -8.1025,12.15379 -28.351,4.04738 -32.4024,16.20117 -4.0511,8.10269 4.0492,20.26655 8.1006,28.36914 8.1026,8.10269 20.2553,8.09858 28.3578,16.20117 8.1026,8.10249 4.0495,24.31115 8.1006,32.41374 4.0514,12.15389 8.0983,24.29985 16.2011,32.40234 8.1026,16.20529 24.3158,24.31584 36.4698,36.46973 8.1024,12.15389 16.1991,28.35374 24.3017,44.55892 8.1025,16.20518 24.3132,28.36513 24.3132,44.57031 0,12.15389 -20.2618,20.24846 -24.3132,32.40235 0,8.10259 0,16.20386 4.056,28.35774 l 12.1566,12.15658 c 16.2054,0 20.2483,-16.19917 32.4023,-24.30176 h 20.2572 c 8.1028,4.0513 8.1101,20.25716 16.2125,20.25716 4.0511,4.0513 12.1547,-12.16327 20.2572,-8.11198 8.1025,0 16.2058,4.05399 20.2572,12.15658 12.1539,16.20518 8.0919,36.46571 20.2457,52.6709 8.1026,12.15388 24.3093,16.20586 40.5144,20.25716 12.154,0 28.3672,-4.05399 36.4697,-12.15658 12.154,-12.15388 12.1547,-28.35574 20.2572,-36.45833 8.1025,-8.10259 20.2552,-4.04929 28.3577,-8.10059 8.1026,-4.05129 16.2041,-12.16127 28.3577,-16.21256 4.0514,-4.0513 16.2058,-16.20787 20.2572,-12.15658 12.1537,16.20519 8.1006,36.46572 8.1006,52.6709 4.0511,48.61555 -12.1491,101.28037 4.056,145.8447 4.0514,16.2051 28.3538,12.1517 44.5589,8.1006 16.2053,-4.0515 28.3536,-20.24575 44.5589,-20.24575 20.2565,-4.0513 40.5216,0 56.7269,0 24.3076,4.05119 52.665,4.04459 76.9727,4.04459 28.3592,4.0514 56.7142,8.10276 85.0732,0 12.1539,0 24.3067,-16.20386 28.3578,-28.35775 8.1027,-8.10259 0.01,-24.31114 8.1119,-32.41373 4.0511,-4.0513 20.2553,-4.0446 28.3578,-4.0446 8.1026,0 12.1501,12.15188 16.2012,8.10059 16.2053,-4.0513 28.3558,-16.21055 36.4583,-24.31315 12.154,-12.15389 16.2037,-32.41173 28.3577,-40.51433 8.1025,-4.05129 16.2061,12.16328 20.2572,8.11198 12.154,-8.10259 16.2107,-24.31584 24.3131,-36.46972 12.154,-12.15389 28.3604,-24.30646 40.5144,-28.35775 20.2565,-8.10259 44.5597,-12.14988 64.8161,-16.20117 12.1539,0 20.2597,-4.05599 32.4137,-4.05599 12.15388,0 24.30468,4.05599 36.45828,4.05599 8.1028,0 16.2107,-8.10059 24.3132,-8.10059 4.0514,-4.0513 12.1497,-12.15858 16.2011,-4.05599 12.1536,12.15389 16.2012,36.46572 16.2012,52.6709 0,16.20518 -16.2012,24.30445 -16.2012,36.45833 -4.0514,16.20519 0,32.41642 4.056,44.57032 4.0514,12.15388 16.206,16.20385 20.2572,28.35774 4.0514,12.1539 4.0514,24.30445 0,36.45834 -4.0512,8.10249 -20.2572,4.05398 -20.2572,12.15657 0,16.20507 8.0938,28.36037 12.1452,40.51437 8.1026,16.2052 8.1033,32.4098 20.2572,48.6149 12.154,20.2566 28.3581,40.5058 48.6149,52.6595 16.2051,12.1539 36.4655,12.1543 52.6709,20.2571 8.1025,8.1026 4.0472,28.3673 16.2012,36.4698 12.1538,8.1025 28.3604,8.0957 40.5143,4.0446 16.2054,0 28.3603,-4.0492 40.5143,-8.1006 4.0514,0 8.1101,-8.1006 16.2126,-8.1006 16.2051,4.0515 36.4541,16.1993 52.6595,24.3017 12.1539,8.1026 16.2037,24.3112 28.3577,32.4138 12.1539,4.0511 24.3113,-4.0466 32.4138,4.056 16.205,4.0514 24.3092,24.3063 40.5143,28.3577 12.1539,8.1025 28.3604,12.1452 40.5143,12.1452 8.1025,4.0512 20.255,-4.0466 28.3578,4.056 16.205,12.1539 24.3024,36.461 44.5589,48.6149 12.1539,8.1026 32.4144,12.1517 52.6709,8.1006 8.1028,-4.0514 8.1034,-24.3018 20.2571,-24.3018 16.2053,-4.0511 28.3539,8.1052 44.5589,12.1566 12.1539,8.1026 24.3159,16.199 36.4698,24.3018 16.2051,8.1025 40.5124,12.1527 48.6149,28.3577 8.1025,12.154 -8.1071,32.4099 -4.056,48.6149 4.0514,20.2565 20.2553,36.4591 28.3577,56.7155 4.0511,12.154 0,32.4213 0,48.6263 0,4.0514 4.0511,8.0941 0,12.1452 -12.1538,4.0514 -24.2998,-4.0511 -32.4023,0 -4.0514,4.0514 -0.01,16.206 4.0446,20.2572 4.0514,8.1027 16.2058,12.1591 20.2572,24.3131 8.1024,16.205 12.1565,36.4587 12.1565,56.7155 4.0514,16.205 0,32.4049 4.056,44.5589 4.0515,16.2053 16.2038,32.4184 28.3578,36.4697 32.4103,8.1025 68.868796,0 105.330396,0 32.4103,4.0511 64.8194,4.0446 97.2298,4.0446 8.1026,4.0514 28.3577,-8.0979 28.3577,4.056 4.0514,12.154 -20.2506,20.253 -24.3017,36.4584 0,12.1536 12.1501,20.2552 16.2012,28.3577 8.1025,16.2051 8.0983,36.4609 16.2011,48.6149 8.1025,12.154 20.259904,16.2106 32.413804,24.3132 12.1536,12.1539 20.2601,24.3044 32.4137,36.4583 12.154,12.1537 24.2997,28.3652 32.4023,44.5703 8.1028,16.2053 8.112,32.403 8.112,52.6595 0,16.2053 -4.054,32.4095 -12.1566,48.6149 -4.0514,20.2565 -16.2106,40.515 -24.3131,60.7715 -4.0515,24.3079 -12.1547,44.571 -20.2572,64.8275 -4.0514,12.1539 -16.1962,28.3604 -12.1452,40.5143 4.0514,12.154 20.2553,12.1501 28.3578,16.2012 4.0515,8.1028 8.096,16.206 4.0446,20.2571 -4.0515,8.1028 -16.199,0 -24.3018,8.1006 -8.1026,8.1025 -12.1516,24.3045 -8.1006,36.4584 0,16.2053 12.1498,28.3652 16.2012,44.5703 4.0511,8.1026 8.1055,16.2038 12.1566,28.3577 4.0515,8.1029 12.1566,16.2039 12.1566,28.3578 4.0514,16.2051 4.0514,32.4142 0,52.6709 0,8.1026 -4.0606,16.2037 -8.112,28.3577 0,8.1025 4.056,20.2552 4.056,28.3578 0,12.1539 -8.1006,24.3044 -8.1006,36.4583 0,12.154 0,28.3671 12.1566,36.4697 12.1539,4.0514 24.3044,-12.1566 36.4583,-12.1566 12.154,0 28.35357,4.0446 44.55893,4.0446 12.15365,4.0514 28.36036,0 40.51432,4.056 12.15386,0 20.25518,8.1006 28.35775,8.1006 8.10246,4.0511 20.25525,8.1006 28.35774,8.1006 8.10277,-4.0514 8.10351,-28.3528 20.25716,-24.3018 12.15393,0 12.15922,20.255 24.31316,28.3578 16.20533,8.1025 40.51016,0 56.71549,8.1006 12.15394,12.154 20.26203,36.4655 24.31315,52.6709 12.15393,32.4103 12.15463,60.7634 20.25716,93.1738 4.05141,16.2054 4.05183,40.517 20.25716,52.6709 8.10254,8.1026 28.35387,8.1052 44.55892,12.1566 20.25646,0 40.51015,-8.1072 56.7155,-4.056 16.20505,4.0514 40.51891,12.1524 44.57031,28.3577 8.10252,20.2564 -16.21256,40.515 -16.21256,60.7715 0,16.2051 12.16338,28.365 8.11198,44.5703 0,12.1536 -12.15658,24.2977 -12.15658,40.503 -4.05141,8.1026 12.15171,12.1546 8.10059,20.2571 -4.05141,8.1025 -16.20604,4.0537 -20.25717,12.1566 -4.0514,8.1025 -4.0514,20.2598 0,32.4137 0,12.1536 0.003,24.3064 12.15658,28.3578 16.20505,4.0514 40.51044,-16.2035 56.71549,-8.1006 20.25646,12.1539 28.35581,40.515 36.45834,60.7715 8.10252,12.154 12.15657,28.3489 12.15657,40.5029 -4.0514,8.1025 -16.20117,12.1547 -16.20117,20.2572 -4.05112,12.154 4.0446,24.3092 4.0446,40.5143 0,12.154 -4.04946,24.3158 -8.10059,36.4697 -8.10281,16.2051 -12.14783,28.3491 -24.30176,40.503 -8.10253,8.1024 -16.21549,12.1614 -28.36914,16.2125 -12.15392,4.0514 -28.35386,-0.01 -44.55892,4.0446 -16.20533,8.1025 -28.36067,24.3113 -40.51432,32.4138 -12.15394,8.1024 -20.2598,20.2552 -32.41374,28.3577 -16.20533,12.154 -36.45903,20.2598 -56.71549,32.4137 -8.10253,8.1025 -12.14783,20.2598 -24.30176,32.4138 -8.10253,12.1539 -20.25521,24.3044 -28.35775,36.4583 -8.10252,8.1025 -12.15463,16.1993 -20.25716,24.3018 -12.15393,12.154 -24.3158,16.2106 -36.46972,24.3131 -8.10254,12.154 -12.15435,28.3556 -20.25717,36.4584 -8.10253,12.1536 -20.25525,16.2037 -28.35774,28.3577 -8.10256,12.1539 -8.10331,32.4164 -20.25716,44.5703 -12.15396,12.1537 -32.41184,8.1033 -40.51433,20.2572 -12.15385,8.1025 -12.1498,24.3043 -16.20117,36.4583 -4.05119,8.1025 -12.15845,20.2617 -4.05599,24.3132 8.10256,8.1024 20.26665,-8.1071 28.36914,-4.056 8.10256,0 12.14981,12.1565 16.20117,12.1565 8.1025,0 12.14978,-8.105 16.20118,-12.1565 4.05139,-4.0511 4.04952,-12.1501 8.10058,-16.2012 8.10249,-4.0514 20.26638,-8.1006 28.36914,-8.1006 8.10253,0 8.09864,12.1498 16.20117,16.2012 4.05141,4.0514 12.15005,4.0495 16.20118,8.1006 8.10281,8.1029 4.05405,20.2549 12.15657,28.3577 8.10281,8.1026 24.30634,8.1055 28.35775,12.1566 8.10253,8.1028 8.10546,20.2552 12.15657,28.3577 4.05141,12.1539 8.10545,24.3064 12.15658,28.3578 4.05141,4.0514 12.15463,4.0514 20.25716,0 4.05141,0 12.15463,-4.0495 20.25716,-8.1006 4.05141,-4.0514 8.10059,-4.0494 8.10059,-8.1006 4.05111,-4.0514 0,-12.1612 0,-16.2126 4.05111,-4.051 8.10517,-4.0445 12.15657,-4.0445 8.10254,0 24.30176,0 24.30176,8.1005 4.05141,8.1025 -12.15005,16.2107 -16.20117,24.3132 0,8.1028 4.04918,16.2058 8.10059,20.2572 12.15393,16.2049 28.35845,32.4001 48.61491,40.5029 12.15392,8.1026 32.40499,8.1101 44.55891,16.2125 12.15394,8.1025 24.31121,20.2553 32.41374,28.3578 8.10252,12.154 12.15921,24.3112 24.31315,32.4137 12.15393,12.154 32.40498,12.1525 44.55892,28.3578 16.20506,12.154 16.20381,36.4541 28.35775,52.6595 32.41039,44.5639 76.98071,20.2612 44.57031,72.928 0,4.0512 -8.10545,8.1052 -12.15657,12.1566 -8.10253,4.0511 -12.14977,4.0492 -16.20118,8.1006 -4.05112,8.1026 -8.11197,12.1547 -8.11197,20.2572 0,8.1025 -4.05141,20.2598 0,32.4137 0,8.1026 8.10516,16.2058 12.15657,20.2572 8.10252,4.0511 12.15463,4.0511 20.25716,0 4.0514,0 8.10517,-8.1052 12.15658,-12.1566 12.15393,-4.0514 24.31121,-8.1052 32.41373,-12.1566 12.15394,-8.1025 28.35582,-16.2038 36.45834,-28.3577 8.10281,-8.1025 8.10058,-20.2599 8.10058,-32.4138 4.05113,-8.1026 4.05599,-16.1992 4.05599,-24.3017 4.05141,-8.1026 8.10059,-16.2107 8.10059,-24.3132 8.10281,-16.2054 20.25716,-32.4095 20.25716,-48.6149 4.05141,-8.1025 -8.10059,-16.2038 -8.10059,-28.3577 0,-8.1026 8.10059,-12.1498 8.10059,-16.2012 4.05141,-12.1536 4.05405,-24.3158 12.15658,-36.4697 8.10281,-16.2054 24.30439,-36.4546 36.45833,-52.6595 8.10252,-8.1026 20.25035,-8.1052 24.30176,-12.1566 8.10252,-4.0514 12.16116,-8.0987 16.21258,-16.2012 4.0514,-8.1029 -0.01,-20.2597 4.0446,-32.4137 4.0511,-12.1539 16.2057,-20.2599 20.2571,-32.4138 4.0512,-8.1025 12.1566,-12.1477 12.1566,-24.3017 0,-4.0514 -8.1006,-8.1052 -8.1006,-12.1566 -8.1025,-8.1026 -12.1614,-16.2039 -16.2125,-28.3577 0,-4.0515 -4.0514,-8.1052 0,-12.1566 12.1539,0 24.3112,0 32.4137,8.1006 12.1539,12.154 8.11,28.3606 16.2126,40.5143 8.1025,8.1028 16.1946,12.1566 20.2457,12.1566 8.1026,0 4.056,-8.1052 4.056,-12.1566 4.0511,-4.0511 0.01,-16.208 4.056,-12.1566 8.1028,0 8.0986,12.1612 16.2012,16.2126 4.0514,0 8.1052,-12.1634 12.1566,-8.112 4.0511,4.0511 4.0511,12.1546 0,20.2572 -4.0514,4.0514 -20.2618,0 -24.3132,8.1005 -4.0514,4.0514 4.0514,16.2106 0,24.3132 -4.0514,8.1025 -12.1546,12.1592 -20.2572,24.3132 -4.0514,4.051 0,12.1497 -8.1005,16.2011 -12.154,8.1026 -32.4118,0 -40.5144,12.1566 -8.1028,12.1539 8.1074,32.4049 4.056,44.5589 -4.0511,8.1025 -20.2552,4.0492 -28.3577,8.1006 -8.10255,4.0511 -12.16147,12.1614 -16.21258,16.2126 -12.15394,12.1539 -32.40499,20.2483 -44.55892,32.4023 -4.05141,8.1025 -4.05141,20.2664 0,28.3692 8.10252,8.1024 24.31092,12.1471 32.41374,4.0445 8.10253,0 8.09865,-16.1989 16.20117,-24.3017 8.10253,-8.1025 20.25519,-16.2106 28.35769,-24.3132 16.2054,-8.1025 28.3604,-16.2037 40.5144,-28.3577 12.1536,-8.1025 16.1992,-20.2553 24.3017,-28.3578 12.154,-12.1538 24.3112,-12.1545 32.4138,-20.2571 12.1539,-16.205 20.2552,-32.4144 28.3577,-52.6709 8.1028,-8.1025 16.2126,-20.2599 16.2126,-32.4138 8.1025,-16.205 8.0938,-32.4098 12.1452,-48.6149 0,-4.0514 -4.0514,-12.1496 0,-16.2011 4.0511,-8.1025 16.2057,-8.0987 20.2571,-16.2012 4.0512,-4.0514 4.0606,-12.1612 8.112,-16.2126 8.1025,-12.1536 20.2504,-12.1477 24.3018,-24.3017 4.0511,-8.1028 -8.1006,-20.255 -8.1006,-28.3578 0,-4.0511 -0.01,-12.1565 4.0446,-12.1565 8.1025,0 16.2155,8.1005 28.3691,8.1005 8.1028,-4.0514 12.1498,-16.206 16.2012,-20.2571 8.1025,-12.1539 16.2103,-20.255 24.3131,-28.3578 16.2051,-8.1025 32.4099,-8.0986 48.6149,-16.2011 8.1026,-8.1025 16.199,-20.2598 24.3018,-32.4138 4.0511,-8.1025 12.1501,-16.2103 16.2012,-24.3131 4.0514,-16.2051 0,-32.4053 4.056,-44.559 4.0511,-20.2566 16.2011,-36.459 16.2011,-56.7154 4.0515,-12.1539 -8.1006,-16.2041 -8.1006,-28.3578 4.0515,-12.1539 20.2572,-24.309 20.2572,-40.5143 0,-8.1026 -12.1566,-16.2107 -12.1566,-24.3132 -4.0511,-16.2054 -4.0446,-32.4096 -4.0446,-48.6149 0,-16.2051 -0.01,-28.3538 4.0446,-44.5589 0,-20.2565 4.0541,-36.4705 12.1566,-56.7269 4.0514,-12.154 24.3132,-16.1969 24.3132,-32.4023 0,-8.1025 -16.2107,-12.1547 -24.3132,-20.2572 v -12.1566 c 4.0514,-4.0511 8.1052,-8.1051 12.1566,-12.1565 16.205,0 32.4098,28.3645 48.6149,24.3131 24.3079,-4.0514 20.2598,-40.5101 32.4137,-56.7155 16.2054,-16.205 32.4031,-24.3158 52.6595,-36.4697 20.2565,-16.2054 44.5642,-28.3535 68.8721,-44.5589 12.1539,-8.1025 24.3158,-20.2553 36.4697,-28.3578 8.1026,-8.1025 16.2039,-16.2059 28.3578,-20.2571 12.1537,-8.1025 28.3538,-12.1546 44.5589,-20.2572 12.1539,-8.1028 24.3092,-24.3132 40.5143,-24.3132 16.2053,-4.0514 36.4658,8.1006 52.6709,8.1006 16.2053,0 36.461,0 48.6149,-8.1006 16.2051,-8.1025 20.2598,-28.3555 32.4138,-36.4583 12.1539,-12.1536 32.4052,-12.1591 44.5589,-24.3131 8.1028,-8.1025 4.0541,-20.2485 12.1566,-32.4024 4.0514,-8.1025 8.0985,-16.206 16.2011,-20.2571 12.1539,0 24.3045,8.105 36.4584,12.1565 8.1028,0 20.2598,8.1006 32.4137,8.1006 8.1026,0 16.2039,-16.206 28.3578,-20.2571 8.1025,0 20.2551,-0.01 28.3577,4.0446 8.1025,4.0514 8.1101,16.2106 16.2126,24.3131 4.0514,4.0514 12.1546,8.1006 20.2571,8.1006 20.2565,-4.0512 44.5548,-4.0473 60.7601,-16.2012 8.1026,-4.0514 4.0541,-20.2617 12.1566,-24.3131 8.1028,0 12.1543,16.206 20.2572,20.2571 12.1536,4.0514 32.4164,4.0495 44.5703,8.1006 12.154,4.0514 16.1992,20.264 24.3017,16.2126 20.2565,-4.0514 40.5171,-16.2087 52.6709,-32.4138 8.1026,-12.1538 0,-32.4118 8.1006,-40.5143 8.1025,-12.154 24.3113,-12.1546 32.4138,-20.2571 28.3589,-12.1539 56.7161,-20.2579 76.9726,-40.5144 8.1025,-4.0514 4.056,-16.1992 4.056,-24.3017 0,-8.1026 -12.1566,-8.1052 -12.1566,-12.1566 0,-8.1025 8.0987,-20.2572 16.2012,-20.2572 8.1026,0 16.2061,20.2591 20.2572,12.1566 8.1025,-8.1026 -4.0511,-24.3092 0,-40.5143 0,-4.0514 4.0495,-12.1546 8.1006,-20.2572 12.1539,-16.2052 24.3089,-32.4096 40.5143,-48.6149 12.1537,-16.2051 32.4163,-32.4099 44.5703,-48.6149 4.0514,-8.1026 4.0427,-20.2551 12.1452,-28.3577 16.2054,-20.2567 36.4659,-44.571 52.6709,-64.8275 20.2565,-20.2565 40.517,-36.459 52.6709,-56.7155 12.154,-20.2565 12.1498,-44.5645 16.2011,-68.8721 4.0511,-16.2054 0,-36.459 4.056,-56.7155 4.0514,-20.2564 8.1032,-40.5102 20.2572,-56.7155 8.1025,-24.3075 24.3044,-44.571 36.4583,-64.8274 12.154,-12.1539 28.3623,-24.3091 32.4138,-40.5144 8.1025,-16.205 -0.01,-36.4541 4.0446,-52.6595 4.0514,-36.4614 16.2037,-68.8708 28.3577,-97.2298 8.1025,-28.3593 24.311,-52.6763 32.4137,-76.984 4.0511,-8.1026 12.1566,-16.199 12.1566,-24.3018 0,-16.2051 -8.1006,-28.3652 -8.1006,-44.5703 0,-12.154 12.1452,-24.3043 12.1452,-36.4583 -4.0514,-20.2564 -20.2571,-36.459 -20.2571,-56.7155 0,-16.205 8.1099,-36.4655 16.2125,-52.6709 4.0514,-28.359 20.2572,-52.6651 20.2572,-76.9727 0,-24.3079 -24.3132,-40.5082 -24.3132,-64.8161 0,-20.2564 16.2107,-40.515 24.3132,-60.7714 4.0515,-12.1539 4.0492,-24.3113 8.1006,-32.4138 8.1025,-8.1025 24.3017,-12.1546 24.3017,-20.2571 0,-12.1539 -16.2011,-20.2599 -16.2011,-32.4138 0,-8.1025 12.1545,-20.2522 20.2571,-16.2011 16.2051,8.1028 8.1078,36.4564 24.3132,44.5589 12.1539,8.1025 32.405,-4.0427 44.5589,-12.1452 12.1539,-8.1026 20.2598,-24.3109 32.4137,-32.4137 20.2565,-20.2564 44.5549,-28.3585 60.7601,-48.615 16.2052,-16.2052 24.3159,-40.515 36.4697,-60.7714 v -4.0446 c 0,-12.154 4.0493,-28.3604 8.1006,-40.5144 4.0513,-12.1538 16.2059,-24.3093 20.2572,-40.5143 4.0513,-8.1026 -4.0513,-16.2061 0,-20.2571 8.1026,-4.0514 16.2059,12.1519 20.2572,8.1005 12.1538,-8.1025 12.1545,-28.3604 20.2571,-40.5143 12.1539,-12.154 28.3537,-24.3043 44.5589,-36.4583 24.3078,-24.3076 48.6136,-48.61561 76.9727,-68.87209 12.1539,-8.1026 24.3158,-16.20386 36.4697,-28.35775 8.1026,-8.10259 4.054,-24.31115 12.1566,-32.41374 8.1026,-4.05129 20.2551,-0.005 28.3577,-4.05599 8.1026,-8.10259 16.2059,-16.20385 20.2572,-28.35774 4.0513,-4.0513 -4.0513,-16.19917 0,-24.30176 16.2052,-20.25648 40.5103,-32.41442 56.7155,-52.6709 16.2052,-16.20518 32.4117,-36.45902 40.5143,-56.71549 16.2052,-24.30777 20.2486,-48.61359 32.4024,-76.97266 12.1538,-28.35907 28.3671,-56.71876 36.4697,-89.12923 4.0513,-32.41037 4.0513,-64.82615 0,-93.18522 0,-40.51296 0,-76.97402 -4.056,-117.48698 -4.0513,-20.25648 -8.1054,-44.5643 -12.1566,-68.87207 -4.0513,-16.20519 -4.0492,-32.41442 -8.1006,-52.6709 -12.1539,-32.41037 -24.309,-64.81476 -40.5143,-93.17383 -8.1026,-12.15389 -20.2484,-20.26185 -32.4023,-24.31315 -32.4104,-12.15389 -64.8309,-16.20587 -97.2412,-20.25716 -24.3078,-4.0513 -48.6089,8.10728 -72.9167,4.05599 -28.3591,-8.10259 -52.6649,-28.36044 -76.9727,-40.51433 -28.359,-20.25648 -48.6202,-40.51031 -72.928,-56.71549 -28.3591,-20.25648 -52.6649,-40.50831 -76.9727,-64.81608 -24.3078,-20.25648 -44.5643,-44.5643 -68.872,-68.87207 -20.2565,-16.20516 -40.5086,-36.47245 -64.8161,-48.6263 -24.3079,-16.20516 -56.7256,-16.20386 -85.0847,-28.35776 -16.2052,-12.1539 -32.4144,-28.3557 -52.6709,-36.4583 -24.3078,-8.1026 -48.609,-8.1053 -72.9166,-12.1566 -24.3078,0 -52.6649,4.0493 -76.9727,8.1006 -16.2051,4.0513 -32.4144,20.2571 -52.6709,20.2571 -20.2564,-4.0512 -36.4587,-24.2997 -56.7155,-32.4023 -12.1536,-4.0513 -28.3652,-12.1566 -44.5703,-12.1566 -16.2053,-4.0513 -36.4544,8.1073 -52.6595,4.056 -8.1028,-4.0513 -12.1547,-20.2571 -20.2572,-20.2571 -16.2053,-8.1026 -36.4659,0 -52.6709,-4.056 -8.1028,-4.0513 -8.0986,-20.2619 -16.2011,-24.3132 -20.2565,-8.1026 -44.571,-8.0986 -64.8275,-16.2012 -4.0512,0 -8.0987,-12.1565 -16.2012,-12.1565 -8.1026,4.0513 -4.054,24.3064 -12.1566,28.3577 -12.1539,4.0513 -24.3112,-4.0426 -32.4137,-12.1452 -8.1025,-4.0513 -4.0426,-24.3084 -12.1452,-20.2571 -12.154,8.1026 -8.11,28.3604 -16.2125,40.5143 -8.1025,4.0513 -16.1993,4.0513 -24.3018,0 -8.1026,0 -16.2058,-8.1053 -20.2572,-12.1566 -8.1025,-4.0513 -16.2103,-8.1073 -24.3131,-4.056 -8.1025,12.1539 -8.0938,32.4098 -12.1452,48.6149 -8.1026,12.1539 -12.1593,24.3159 -24.3132,36.4698 -8.1026,8.1026 -24.3112,12.1478 -32.4137,24.3017 -8.1026,16.2052 -4.0427,68.87605 -12.1452,52.67092 -8.1025,-20.25642 -0,-44.57102 8.1006,-64.82752 0,-8.1025 8.1052,-20.2484 12.1566,-32.4023 4.0514,-8.1026 -0.01,-16.2106 4.0446,-24.3131 4.0511,-12.1539 12.1545,-24.3045 20.2571,-36.4584 4.0511,-8.1026 12.1546,-16.2105 20.2572,-24.3131 4.0511,-4.0513 16.2012,-8.0939 16.2012,-12.1452 -4.0511,-8.1026 -12.1546,-16.2126 -20.2572,-16.2126 -8.1025,4.0513 -16.1992,24.3152 -24.3017,16.2126 -8.1028,-4.0513 4.0491,-16.2106 8.1005,-24.3132 4.0511,-8.1026 16.2012,-12.1545 16.2012,-20.2571 0,-12.1539 -8.0987,-20.2552 -16.2012,-28.3578 -4.0514,-4.0513 -16.206,0 -20.2571,-4.056 -8.1028,-12.1539 -12.1546,-28.3557 -20.2572,-36.4583 -4.0514,-4.0513 -12.1498,0.01 -16.2012,-4.0446 -8.1026,0 -12.1546,-12.1633 -20.2571,-8.112 -12.154,0 -20.2618,8.1033 -24.3132,20.2572 -4.0511,12.1539 16.2099,32.4184 4.056,36.4697 -16.2051,4.0513 -24.3066,-20.2598 -28.3577,-32.4137 -4.0514,-12.1539 16.2011,-20.2599 16.2011,-32.4138 -4.0512,-8.1025 -12.1478,-12.1565 -24.3017,-12.1565 -4.0512,-4.0513 -4.0606,8.1119 -8.112,8.1119 -8.1025,-4.0513 0,-20.2571 -8.1006,-20.2571 -12.154,-4.0513 -24.3044,8.1006 -36.4583,8.1006 -12.1537,0 -24.3044,-16.2126 -36.4583,-16.2126 -4.0514,0 -8.1052,16.208 -12.1566,12.1566 -8.1026,-8.1025 0,-28.3512 -8.1006,-32.4024 -12.1539,-4.0513 -24.3158,20.2525 -36.4697,16.2012 -12.1537,-4.0513 -12.1525,-32.4116 -28.3578,-40.5143 -20.2565,-12.1538 -40.5082,-12.1499 -64.8161,-16.2012 -20.2564,-8.1027 -40.515,-20.2617 -60.7714,-24.3131 -8.1026,0 12.1584,20.2525 4.0559,16.2011 -16.2053,0 -32.4095,-20.2504 -48.6149,-24.3017 -12.1539,0 -16.2057,16.2011 -20.2571,16.2011 -12.154,8.1026 -24.3112,4.0539 -32.4138,12.1566 -12.1539,4.0513 -16.2106,16.2105 -24.3131,24.3132 -12.1539,12.1539 -24.3044,24.3043 -36.4583,36.4583 -8.1026,8.1026 -24.3018,16.1991 -24.3018,24.3018 0,20.2564 36.4557,32.4164 24.3018,44.5703 -8.1026,12.1539 -28.3604,-16.2012 -40.5144,-16.2012 -16.2053,4.0513 -24.3044,24.2998 -36.4583,32.4024 -8.1025,4.0512 -12.1501,0 -16.2012,0 -16.2053,0 -32.4096,-4.0467 -48.6149,4.0559 -16.2051,4.0513 -28.3652,24.3112 -44.5703,32.4138 -12.1539,4.0513 -24.3044,0 -36.4583,0 -16.2051,0 -32.4099,-12.1633 -48.6149,-8.112 -12.154,8.1026 -8.1078,40.521 -24.3132,36.4697 -24.3079,0 -28.3584,-40.519 -48.6149,-44.5703 -12.1539,-4.0513 -12.1478,28.3625 -24.3018,32.4137 -12.1539,4.0513 -20.2571,-12.1592 -20.2571,-24.3131 4.0514,-12.1539 28.3558,-12.1526 36.4583,-28.3577 4.0514,-12.1539 4.0514,-32.4051 0,-44.559 -4.0511,-12.1539 -8.1032,-28.3577 -20.2571,-28.3577 -32.4104,0 -60.7749,20.2484 -93.1853,32.4023 -28.359,8.1026 -60.7588,24.3065 -89.1178,28.3578 -20.25646,4.0513 -40.52156,12.1539 -56.72689,0 -8.10253,-4.0513 12.15463,-20.2505 20.25716,-24.3018 20.25646,-8.1026 48.61563,4.0533 68.87203,-8.1006 16.2051,-16.2052 16.2107,-40.5197 24.3132,-64.8274 0,-4.0513 -0.01,-12.1498 4.0446,-16.2012 16.205,-28.3591 32.4144,-60.7655 52.6709,-85.0733 24.3078,-32.4103 48.6134,-56.7255 76.9726,-85.0846 12.1537,-12.1539 32.4167,-20.2531 44.5704,-36.4583 24.3078,-20.2565 40.5104,-44.5643 56.7154,-68.8721 16.2051,-20.2565 36.4632,-44.569 40.5144,-72.9281 0,-16.2051 -12.1593,-32.4003 -24.3132,-40.5029 -24.3076,-12.1539 -52.6602,4.0419 -72.9166,-8.112 -16.2051,-8.1026 -20.2621,-28.3537 -24.3132,-44.5589 -4.0514,-8.1026 4.056,-16.2038 4.056,-28.3577 -4.0511,-16.2052 -12.1546,-32.4098 -20.2572,-48.6149 -12.1539,-24.3078 -24.3109,-44.569 -32.4137,-72.9281 -4.0511,-24.3078 -4.0492,-48.6203 -8.1006,-72.9281 -4.0514,-16.2051 0,-36.4543 -8.1006,-52.6595 -12.1539,-24.3077 -28.3676,-60.7761 -56.7269,-64.8274 -16.205,0 20.2591,40.5217 12.1566,56.7268 -8.1025,12.1539 -20.2484,-28.3644 -32.4023,-24.3131 -28.359,20.2565 -44.5711,56.7142 -64.82751,85.0732 l -60.77148,109.3864 c -8.10253,20.2565 -16.19895,36.4657 -24.30176,52.6709 -8.10253,16.2052 -8.10322,36.4678 -20.25716,44.5703 -16.20505,12.1539 -40.51503,20.2525 -60.77148,16.2012 -20.25646,-4.0513 -24.30928,-28.3624 -40.51433,-32.4137 -8.10253,-4.0513 -16.19894,12.1566 -24.30176,12.1566 -8.10253,0 -16.21061,-16.2012 -24.31315,-16.2012 -24.30786,4.0513 -36.45903,32.4023 -56.71549,32.4023 -20.25646,4.0513 -32.41444,-16.1991 -52.6709,-24.3017 -4.05141,0 -12.15006,12.1519 -16.20117,8.1006 -20.25675,-12.1539 -32.40763,-48.615 -56.7155,-48.615 -32.41039,-4.0512 -64.83081,32.4071 -97.24121,36.4584 -16.20505,0 -28.34899,-28.3531 -40.50293,-24.3018 -20.25646,4.0513 -36.46319,20.2579 -40.51432,40.5143 0,20.2565 28.35775,36.4591 28.35775,56.7155 0,8.1026 -16.21034,16.2079 -24.31315,12.1566 -20.25646,-8.1026 -32.40279,-36.463 -52.65951,-40.5143 -8.10249,-4.0513 8.10286,20.2551 0,28.3577 -8.10249,8.1026 -28.36536,16.2012 -44.57031,16.2012 -12.15396,0 -24.3093,-16.2012 -40.51432,-16.2012 -20.25642,-4.0513 -48.61563,-8.1093 -68.87203,4.0446 -8.1025,4.0513 12.1539,24.3065 0,28.3578 -20.2564,12.1539 -52.6648,0.01 -76.9727,8.112 -8.102504,0 8.1029,16.2058 0,20.2571 -12.153604,4.0513 -24.311204,-12.1633 -32.413704,-8.112 -24.3079,12.1539 -28.352,44.5684 -52.6595,52.6709 -16.20539976,8.1026 -40.5106,-4.0539 -56.7155,-12.1565 -24.3079,-12.1539 -48.6221,-28.3585 -64.827496,-48.6149 -12.1539,-12.1539 -16.2057,-28.3538 -20.2572,-44.559 0,-16.2051 16.2077,-32.4097 12.1566,-48.6149 -4.0514,-12.1539 -28.3623,-16.2038 -32.4137,-28.3577 -8.1026,-20.2565 -12.1566,-48.6156 -12.1566,-68.8721 4.0514,-12.1539 20.2617,-16.2105 24.3131,-24.3131 8.1025,-12.1539 -4.0465,-24.3045 4.056,-36.4584 12.154,-16.2052 40.507896,-16.2085 44.558896,-32.4137 8.1025,-24.3078 -8.1051,-44.5643 -12.1565,-68.8721 -4.051196,-16.2052 -12.150096,-32.405 -16.201196,-44.5589 -8.1025,-8.1026 -12.1547,-20.2619 -20.2572,-24.3131 -8.1025,-4.0513 -24.3112,4.0466 -32.4137,-4.056 -16.2054,-16.2052 -24.3018,-36.459 -24.3018,-56.7155 -4.0511,-16.2051 16.2081,-28.3539 12.1566,-44.559 -4.0514,-8.1026 -20.2597,-16.2125 -32.4137,-16.2125 z m 1523.28612,676.5755 c -24.3076,0 -44.5661,16.1972 -60.7715,32.4023 -12.1539,8.1026 -24.3017,20.2646 -24.3017,36.4698 -4.0512,12.1539 -0.01,28.351 12.1451,32.4023 8.1026,4.0513 8.1052,-16.1991 12.1566,-24.3017 8.1025,-8.1026 8.1032,-20.2619 20.2572,-24.3132 4.0514,-4.0513 16.208,4.054 12.1565,12.1566 0,12.1539 -24.3085,20.2551 -20.2571,28.3577 0,12.1539 20.2552,0 28.3577,0 24.3079,-4.0513 48.6224,4.0533 64.8275,-8.1006 12.1539,-8.1025 24.3037,-32.4117 16.2012,-40.5143 -20.2568,-16.2052 -52.6713,4.0533 -72.9281,-8.1006 -8.1025,-8.1026 24.3105,-36.4583 12.1566,-36.4583 z m -129.6436,89.1292 c -16.2053,4.0513 -8.1028,40.5057 0,52.6595 8.1026,12.1539 32.4138,4.058 32.4138,-4.0446 0,-20.2564 -12.1573,-52.6662 -32.4138,-48.6149 z m 310.8757,24.7461 c -9.8117,1.0762 -19.1842,3.605 -27.2868,7.6563 -24.3079,16.2052 -7e-4,64.8214 -20.2572,89.1292 -8.1028,12.1538 -16.2011,-28.3537 -16.2011,-44.5589 0,-8.1026 20.2571,-4.054 20.2571,-12.1566 0,-12.1539 -8.0986,-24.3064 -16.2011,-28.3577 -28.3593,-12.1539 -56.7257,-8.1006 -85.0847,-8.1006 -24.3078,-4.0513 -52.6648,-4.0513 -76.9726,0 -12.154,4.0513 -20.2598,16.1991 -32.4138,24.3017 -8.1025,8.1026 -24.3017,12.1593 -24.3017,24.3132 -4.0514,16.2052 12.1566,32.4096 12.1566,48.6149 -4.0512,16.2052 -24.3132,24.3045 -24.3132,36.4583 -4.0514,20.2566 0,44.5663 12.1566,60.7715 8.1025,8.1026 28.3558,0 36.4583,8.1006 8.1025,8.1026 -8.1025,24.3065 0,28.3578 20.2565,8.1025 40.5102,0 56.7155,4.0559 12.1539,0 20.2598,12.1519 32.4137,8.1006 8.1026,0 4.0541,-16.2105 12.1566,-24.3131 16.2054,-8.1026 32.405,-4.0426 44.5589,-12.1452 16.2054,-4.0513 24.3093,-20.2572 40.5144,-20.2572 8.1028,0 12.1592,16.2012 24.3131,16.2012 8.1025,0 20.2504,-8.1033 24.3018,-20.2572 0,-12.1538 -20.2477,-32.405 -12.1452,-44.5589 12.1539,-20.2565 44.555,-20.2578 60.7601,-40.5143 16.2053,-20.2566 52.6748,-48.6203 36.4697,-72.9281 -15.1923,-21.2693 -48.6198,-31.1417 -78.055,-27.9134 z m -337.4561,6.517 c -11.3942,5.6971 -25.0756,28.4936 -34.191,37.609 -16.2051,20.2565 -28.3604,44.5597 -40.5144,64.8161 -12.1539,24.3079 -52.6588,52.6716 -32.4023,72.928 16.2053,20.2565 44.5661,-20.2645 60.7715,-36.4697 20.2564,-16.2052 36.4564,-40.5083 44.5589,-64.8161 8.1028,-20.2564 28.3619,-52.6715 12.1566,-72.928 -3.0385,-3.0385 -6.5812,-3.0384 -10.3793,-1.1393 z"/><g transform="matrix(1.0407731,0,0,1.0407731,1283.4675,907.34879)"><path fill="#ffcb00" d="M -1743,0 0,1113 1743,0 0,-1113 Z"/><circle r="735" fill="#302681"/><path fill="#fff" d="m -2205,1470 a 1785,1785 0 0 1 3570,0 h -105 a 1680,1680 0 1 0 -3360,0 z" clip-path="url(#g)"/><g fill="#009440" transform="translate(-420,1470)"><use xlink:href="#b" y="-1697.5" transform="rotate(-7)"/><use xlink:href="#h" y="-1697.5" transform="rotate(-4)"/><use xlink:href="#i" y="-1697.5" transform="rotate(-1)"/><use xlink:href="#j" y="-1697.5" transform="rotate(2)"/><use xlink:href="#k" y="-1697.5" transform="rotate(5)"/><use xlink:href="#l" y="-1697.5" transform="rotate(9.75)"/><use xlink:href="#c" y="-1697.5" transform="rotate(14.5)"/><use xlink:href="#h" y="-1697.5" transform="rotate(17.5)"/><use xlink:href="#b" y="-1697.5" transform="rotate(20.5)"/><use xlink:href="#m" y="-1697.5" transform="rotate(23.5)"/><use xlink:href="#h" y="-1697.5" transform="rotate(26.5)"/><use xlink:href="#j" y="-1697.5" transform="rotate(29.5)"/><use xlink:href="#n" y="-1697.5" transform="rotate(32.5)"/><use xlink:href="#n" y="-1697.5" transform="rotate(35.5)"/><use xlink:href="#b" y="-1697.5" transform="rotate(38.5)"/></g><use xlink:href="#o" x="-600" y="-132"/><use xlink:href="#o" x="-535" y="177"/><use xlink:href="#p" x="-625" y="243"/><use xlink:href="#q" x="-463" y="132"/><use xlink:href="#p" x="-382" y="250"/><use xlink:href="#r" x="-404" y="323"/><use xlink:href="#o" x="228" y="-228"/><use xlink:href="#o" x="515" y="258"/><use xlink:href="#r" x="617" y="265"/><use xlink:href="#p" x="545" y="323"/><use xlink:href="#p" x="368" y="477"/><use xlink:href="#r" x="367" y="551"/><use xlink:href="#r" x="441" y="419"/><use xlink:href="#p" x="500" y="382"/><use xlink:href="#r" x="365" y="405"/><use xlink:href="#p" x="-280" y="30"/><use xlink:href="#r" x="200" y="-37"/><use xlink:href="#o" y="330"/><use xlink:href="#p" x="85" y="184"/><use xlink:href="#p" y="118"/><use xlink:href="#r" x="-74" y="184"/><use xlink:href="#q" x="-37" y="235"/><use xlink:href="#p" x="220" y="495"/><use xlink:href="#r" x="283" y="430"/><use xlink:href="#r" x="162" y="412"/><use xlink:href="#o" x="-295" y="390"/><use xlink:href="#s" y="575"/></g></svg>